<svg width="74" height="16" viewBox="0 0 74 16" fill="none" xmlns="http://www.w3.org/2000/svg">
<path d="M2.13118 10.7752L0.739983 11.456C-0.296017 9.32479 -0.207217 6.92719 0.739983 4.94399L2.13118 5.62479C2.57518 5.86159 2.81198 6.36479 2.66398 6.83839C2.42718 7.72639 2.42718 8.64399 2.66398 9.53199C2.78238 10.0352 2.57518 10.5384 2.13118 10.7752ZM6.18638 12.9952C5.29838 12.7584 4.49918 12.3144 3.84798 11.6632C3.49278 11.308 2.93038 11.2192 2.51598 11.5152L1.24318 12.344C2.48638 14.1496 4.52878 15.4224 6.89678 15.6L6.98558 14.0608C7.01518 13.5576 6.68958 13.1136 6.18638 12.9952ZM1.24318 4.05599L2.54558 4.91439C2.95998 5.18079 3.52238 5.12159 3.87758 4.76639C4.52878 4.11519 5.32798 3.64159 6.21598 3.43439C6.68958 3.31599 7.04478 2.87199 7.01518 2.36879V0.799986C4.79518 0.977586 2.57518 2.10239 1.24318 4.05599ZM74 0.799986V2.22079C74 2.78319 73.5264 3.25679 72.964 3.25679H68.376V14.3272C68.376 14.9784 67.9024 15.5408 67.2808 15.6C66.5408 15.6592 65.9192 15.0968 65.9192 14.3864V3.25679H58.5488C55.648 3.25679 53.3096 5.80239 53.6352 8.79199C53.872 10.9824 55.6184 12.788 57.8088 13.1136C59.496 13.3504 61.0648 12.7584 62.1008 11.6336C62.456 11.2784 62.9888 11.2192 63.4032 11.5152L64.676 12.3736C64.676 12.3736 62.8112 15.6296 58.5784 15.6296H43.4232C42.7424 15.6296 42.1208 15.304 41.736 14.7416L34.8096 5.23999V14.2384C34.8096 15.008 34.188 15.6296 33.4184 15.6296C32.7376 15.6296 32.116 15.304 31.7312 14.7416L25.2192 5.23999V8.22959C25.2192 12.3144 21.9336 15.6296 17.908 15.6296C15.8656 15.6296 14.0304 14.8008 12.6984 13.4392C11.4552 14.6824 9.79758 15.4816 7.93278 15.6296L7.84398 14.0904C7.81438 13.5872 8.13998 13.1728 8.64318 13.0248C10.5968 12.4624 11.3072 11.456 11.3072 11.456C10.8336 10.4792 10.5672 9.38399 10.5672 8.22959C10.5672 4.14479 13.8528 0.829586 17.908 0.829586C19.8616 0.829586 21.608 1.59919 22.94 2.84239V2.19119C22.8808 1.42159 23.5024 0.799986 24.272 0.799986C24.9528 0.799986 25.5744 1.12559 25.9592 1.68799L32.3232 11.1304V2.19119C32.3232 1.42159 32.9448 0.799986 33.7144 0.799986C34.3952 0.799986 35.0168 1.12559 35.4016 1.68799L42.328 11.1304V1.98399V1.83599C42.328 1.27359 42.8016 0.799986 43.364 0.799986H53.3984C53.6648 0.799986 53.7832 1.12559 53.6056 1.30319L52.096 2.69439C51.7112 3.04959 51.208 3.25679 50.7048 3.25679H44.7848V6.95679H49.0768C49.7576 6.95679 50.2904 7.51919 50.2904 8.19999C50.2904 8.88079 49.728 9.41359 49.0768 9.41359H44.7848V13.1136H53.0136C51.8296 11.8112 51.1192 10.0648 51.1192 8.17039C51.1192 4.11519 54.3456 0.859186 58.3712 0.770386H74V0.799986ZM22.7328 8.19999C22.7328 5.47679 20.5424 3.25679 17.8488 3.25679C15.1552 3.25679 12.9944 5.47679 12.9944 8.19999C12.9944 10.9232 15.1848 13.1432 17.8784 13.1432C20.572 13.1432 22.7328 10.9232 22.7328 8.19999Z" fill="url(#paint0_linear)"/>
<defs>
<linearGradient id="paint0_linear" x1="13.6016" y1="27.1194" x2="62.0046" y2="-13.4956" gradientUnits="userSpaceOnUse">
<stop stop-color="#28DC96"/>
<stop offset="0.5" stop-color="#42CDDD"/>
<stop offset="1" stop-color="#1478DE"/>
</linearGradient>
</defs>
</svg>
